<?xml version="1.0" encoding="UTF-8"?>
<svg width="488px" height="75px" viewBox="0 0 488 75" version="1.1" xmlns="http://www.w3.org/2000/svg" xmlns:xlink="http://www.w3.org/1999/xlink">
    <!-- Generator: Sketch 51.3 (57544) - http://www.bohemiancoding.com/sketch -->
    <title>Group</title>
    <desc>Created with Sketch.</desc>
    <defs></defs>
    <g id="Alter.-brand" stroke="none" stroke-width="1" fill="none" fill-rule="evenodd">
        <g id="Letter" transform="translate(-14.000000, -686.000000)" stroke="#000000" stroke-width="3">
            <g id="Group" transform="translate(20.000000, 689.000000)">
                <path d="M83.9845594,49.4705449 L34.9487739,49.4705449 L21.9709962,69.5 L-2.81498115,69.5 L44.889594,-1.5 L75.2899212,-1.5 L122.808875,69.5 L96.9623372,69.5 L83.9845594,49.4705449 Z M42.765984,38.5 L77.226725,38.5 L65.3776721,20.3818119 C63.4411536,17.1279278 61.6737084,13.864839 59.9997148,10.4662958 C58.2967054,13.9194242 56.5255165,17.1590523 54.590514,20.3319892 L42.765984,38.5 Z M132.5,69.5 L132.5,-1.5 L156.5,-1.5 L156.5,69.5 L132.5,69.5 Z M189.738806,24.9 L168.376808,24.9 L174.261669,14.9 L189.738806,14.9 L189.738806,2.5 L214.052239,2.5 L214.052239,14.9 L245.565665,14.9 L239.936667,24.9 L214.052239,24.9 L214.052239,51 C214.052239,55.7094286 216.323156,57.4 224.910448,57.4 C231.830493,57.4 237.980246,55.7084411 242.196395,53.0334224 L244.5,51.5718548 L244.5,65.4929577 L243.585931,65.8808275 C238.474835,68.0496361 229.408469,69.5 219.716418,69.5 C199.884107,69.5 189.738806,63.5255448 189.738806,53.4 L189.738806,24.9 Z M279.55638,44.5412758 C281.141938,53.6144251 289.665416,58.9427767 303.264463,58.9427767 C314.364094,58.9427767 321.954168,55.8387762 324.041698,49.063042 L324.499967,47.5755872 L344.549569,54.5731432 L343.147364,56.2382521 C335.495747,65.324492 322.250858,69.5 301.487603,69.5 C273.931724,69.5 254.5,58.2038367 254.5,41.5497186 C254.5,24.5258389 272.67045,13.5 299.710744,13.5 C326.431596,13.5 342.832193,24.7403313 342.256198,42.4446529 L342.256198,44.5412758 L279.55638,44.5412758 Z M279.854638,36.5 L316.326103,36.5 C315.134118,27.8098288 310.58137,24.5 299.607143,24.5 C288.348223,24.5 281.916176,28.6176787 279.854638,36.5 Z M384.58051,23.246318 C388.683483,16.6836657 395.783311,13.5 405.338959,13.5 C422.048669,13.5 432.14292,20.5015672 430.282849,32.9554182 L430.147903,33.8589308 L408.505926,41.2351046 L408.67863,38.9678209 C409.16343,32.603298 408.467545,28.7774974 406.791836,26.8020795 C405.467644,25.2410493 403.424476,24.661597 399.787274,24.661597 C391.076585,24.661597 384.811306,31.7117317 384.811306,45.1273764 L384.811306,69.5 L360.5,69.5 L360.5,15.0114068 L384.863794,15.0114068 L384.58051,23.246318 Z M445.5,70.5 L445.5,54.5 L471.5,54.5 L471.5,70.5 L445.5,70.5 Z" id="Alter."></path>
                <path d="M92.9845594,49.4705449 L43.9487739,49.4705449 L30.9709962,69.5 L6.18501885,69.5 L53.889594,-1.5 L84.2899212,-1.5 L131.808875,69.5 L105.962337,69.5 L92.9845594,49.4705449 Z M51.765984,38.5 L86.226725,38.5 L74.3776721,20.3818119 C72.4411536,17.1279278 70.6737084,13.864839 68.9997148,10.4662958 C67.2967054,13.9194242 65.5255165,17.1590523 63.590514,20.3319892 L51.765984,38.5 Z M141.5,69.5 L141.5,-1.5 L165.5,-1.5 L165.5,69.5 L141.5,69.5 Z M198.738806,24.9 L177.376808,24.9 L183.261669,14.9 L198.738806,14.9 L198.738806,2.5 L223.052239,2.5 L223.052239,14.9 L254.565665,14.9 L248.936667,24.9 L223.052239,24.9 L223.052239,51 C223.052239,55.7094286 225.323156,57.4 233.910448,57.4 C240.830493,57.4 246.980246,55.7084411 251.196395,53.0334224 L253.5,51.5718548 L253.5,65.4929577 L252.585931,65.8808275 C247.474835,68.0496361 238.408469,69.5 228.716418,69.5 C208.884107,69.5 198.738806,63.5255448 198.738806,53.4 L198.738806,24.9 Z M288.55638,44.5412758 C290.141938,53.6144251 298.665416,58.9427767 312.264463,58.9427767 C323.364094,58.9427767 330.954168,55.8387762 333.041698,49.063042 L333.499967,47.5755872 L353.549569,54.5731432 L352.147364,56.2382521 C344.495747,65.324492 331.250858,69.5 310.487603,69.5 C282.931724,69.5 263.5,58.2038367 263.5,41.5497186 C263.5,24.5258389 281.67045,13.5 308.710744,13.5 C335.431596,13.5 351.832193,24.7403313 351.256198,42.4446529 L351.256198,44.5412758 L288.55638,44.5412758 Z M288.854638,36.5 L325.326103,36.5 C324.134118,27.8098288 319.58137,24.5 308.607143,24.5 C297.348223,24.5 290.916176,28.6176787 288.854638,36.5 Z M393.58051,23.246318 C397.683483,16.6836657 404.783311,13.5 414.338959,13.5 C431.048669,13.5 441.14292,20.5015672 439.282849,32.9554182 L439.147903,33.8589308 L417.505926,41.2351046 L417.67863,38.9678209 C418.16343,32.603298 417.467545,28.7774974 415.791836,26.8020795 C414.467644,25.2410493 412.424476,24.661597 408.787274,24.661597 C400.076585,24.661597 393.811306,31.7117317 393.811306,45.1273764 L393.811306,69.5 L369.5,69.5 L369.5,15.0114068 L393.863794,15.0114068 L393.58051,23.246318 Z M454.5,70.5 L454.5,54.5 L480.5,54.5 L480.5,70.5 L454.5,70.5 Z" id="Alter.-Copy"></path>
            </g>
        </g>
    </g>
</svg>